<svg width="20" height="19" viewBox="0 0 20 19" fill="none" xmlns="http://www.w3.org/2000/svg">
<path fill-rule="evenodd" clip-rule="evenodd" d="M0 0.683884H13.0941C14.0456 0.683884 14.817 1.44932 14.817 2.39354C14.817 3.33776 14.0456 4.1032 13.0941 4.1032H3.44582V9.33831L8.56923 14.5891H13.0941C14.0456 14.5891 14.817 15.3545 14.817 16.2987C14.817 17.243 14.0456 18.0084 13.0941 18.0084H7.10925L0 10.7224V0.683884Z" fill="#FE682F"/>
<path fill-rule="evenodd" clip-rule="evenodd" d="M18.0084 -4.9821e-08C18.6379 -7.73363e-08 19.1482 0.513462 19.1482 1.14685L19.1482 3.16817C19.1482 3.80156 18.6379 4.31502 18.0084 4.31502C17.3789 4.31502 16.8687 3.80156 16.8687 3.16817L16.8687 1.14685C16.8687 0.513462 17.3789 -2.23056e-08 18.0084 -4.9821e-08ZM18.0084 6.06397C18.6379 6.06397 19.1482 6.57743 19.1482 7.21082L19.1482 11.2535C19.1482 11.8869 18.6379 12.4003 18.0084 12.4003C17.3789 12.4003 16.8687 11.8869 16.8687 11.2535L16.8687 7.21082C16.8687 6.57743 17.3789 6.06397 18.0084 6.06397ZM18.0084 14.1493C18.6379 14.1493 19.1482 14.6627 19.1482 15.2961L19.1482 17.3174C19.1482 17.9508 18.6379 18.4643 18.0084 18.4643C17.3789 18.4643 16.8687 17.9508 16.8687 17.3174L16.8687 15.2961C16.8687 14.6627 17.3789 14.1493 18.0084 14.1493Z" fill="#FE682F"/>
</svg>
