<svg width="75" height="19" viewBox="0 0 75 19" fill="none" xmlns="http://www.w3.org/2000/svg">
<path fill-rule="evenodd" clip-rule="evenodd" d="M0 0.683884H13.0941C14.0456 0.683884 14.817 1.44932 14.817 2.39354C14.817 3.33776 14.0456 4.1032 13.0941 4.1032H3.44582V9.33831L8.56923 14.5891H13.0941C14.0456 14.5891 14.817 15.3545 14.817 16.2987C14.817 17.243 14.0456 18.0084 13.0941 18.0084H7.10925L0 10.7224V0.683884Z" fill="#FE682F"/>
<path fill-rule="evenodd" clip-rule="evenodd" d="M18.0084 -4.9821e-08C18.6379 -7.73363e-08 19.1482 0.513462 19.1482 1.14685L19.1482 3.16817C19.1482 3.80156 18.6379 4.31502 18.0084 4.31502C17.3789 4.31502 16.8687 3.80156 16.8687 3.16817L16.8687 1.14685C16.8687 0.513462 17.3789 -2.23056e-08 18.0084 -4.9821e-08ZM18.0084 6.06397C18.6379 6.06397 19.1482 6.57743 19.1482 7.21082L19.1482 11.2535C19.1482 11.8869 18.6379 12.4003 18.0084 12.4003C17.3789 12.4003 16.8687 11.8869 16.8687 11.2535L16.8687 7.21082C16.8687 6.57743 17.3789 6.06397 18.0084 6.06397ZM18.0084 14.1493C18.6379 14.1493 19.1482 14.6627 19.1482 15.2961L19.1482 17.3174C19.1482 17.9508 18.6379 18.4643 18.0084 18.4643C17.3789 18.4643 16.8687 17.9508 16.8687 17.3174L16.8687 15.2961C16.8687 14.6627 17.3789 14.1493 18.0084 14.1493Z" fill="#FE682F"/>
<path d="M33.4849 14.1968C35.0337 14.1968 36.1319 13.5239 37.0332 12.6289L35.8526 10.9658C35.1734 11.6323 34.3609 12.1338 33.4214 12.1338C31.8408 12.1338 30.2158 10.7246 30.2158 8.90283C30.2158 7.11279 31.7837 5.65283 33.4277 5.65283C34.3101 5.65283 35.148 6.07178 35.8462 6.75732L37.0332 5.13867C35.9605 4.104 34.7798 3.57715 33.4468 3.55811C30.565 3.55811 28.1338 6.00195 28.1338 8.89014C28.1338 11.7656 30.5332 14.1968 33.4849 14.1968ZM45.2583 14H47.4863L42.5923 3.51367H42.5288L37.6411 14H39.8628L40.5166 12.5718H44.6108L45.2583 14ZM41.3164 10.8198L42.5669 8.08398L43.811 10.8198H41.3164ZM56.5557 14L53.6484 9.93115C54.7466 9.54395 55.54 8.39502 55.54 7.08105C55.54 5.24023 53.9722 3.76758 52.0615 3.76758H48.7227L48.729 14H50.7856V9.16309L54.042 14H56.5557ZM50.7793 5.80518H52.0996C52.7915 5.80518 53.4199 6.36377 53.4199 7.09375C53.4199 7.82373 52.7979 8.38867 52.0996 8.38232L50.7793 8.37598V5.80518ZM63.9619 3.76758H56.8652V5.80518H59.3852V14H61.4482V5.80518H63.9619V3.76758ZM64.5698 14H66.9311L68.8672 10.5659L70.8096 14H73.1709L70.0542 8.68066L72.9805 3.76758H70.6191L68.8735 6.86523L67.1216 3.76758H64.7602L67.6802 8.68701L64.5698 14Z" fill="#1A1A1A"/>
</svg>
