<svg width="155" height="8" viewBox="0 0 155 8" fill="none" xmlns="http://www.w3.org/2000/svg">
<path fill-rule="evenodd" clip-rule="evenodd" d="M65.9066 0.766163C58.6742 1.02872 51.5268 1.35156 44.5568 1.7045C34.6901 2.20379 24.8272 2.7203 15.0238 3.5381C11.9379 3.79636 8.8041 3.95991 5.73748 4.28272C3.81246 4.48502 1.25991 4.77337 0.924925 4.83362C0.749712 4.86806 0.673273 4.91976 0.648573 4.93697C0.474904 5.05749 0.506592 5.17366 0.604619 5.26405C0.643984 5.30278 0.743527 5.39751 1.01985 5.41043C19.4998 6.29279 38.3966 4.57111 56.8989 4.39033C88.9853 4.08043 122.044 5.31143 153.876 7.99726C154.154 8.01878 154.424 7.91115 154.462 7.75189C154.509 7.59694 154.308 7.44629 154.03 7.42477C122.145 4.73464 89.0316 3.49932 56.8835 3.81353C39.64 3.98139 22.0562 5.4922 4.78886 4.9757C5.1856 4.93265 5.57464 4.8896 5.9297 4.85086C8.98396 4.52804 12.1046 4.3688 15.1782 4.11055C24.9608 3.29274 34.8036 2.77624 44.6572 2.28125C56.8835 1.66145 69.6424 1.12772 82.5016 0.878076C87.1019 0.916814 91.6868 0.955569 96.2716 1.00292C106.19 1.10622 116.155 1.40751 126.05 1.81211C129.03 1.93693 132.009 2.06605 134.988 2.17796C135.976 2.2167 138.523 2.32859 138.879 2.31998C139.319 2.31137 139.403 2.10479 139.411 2.07035C139.434 1.99288 139.419 1.88526 139.203 1.79488C139.18 1.78196 139.041 1.73889 138.732 1.71307C120.74 0.189377 101.528 -0.0645317 82.5171 0.301327C62.4641 0.142071 42.3339 0.0731716 22.3318 0C22.0454 0 21.8116 0.129145 21.8092 0.288401C21.8077 0.447657 22.0385 0.576807 22.3248 0.581111C36.8081 0.632761 51.3646 0.684383 65.9066 0.766163Z" fill="#1A1A1A"/>
</svg>
