<svg width="36" height="45" viewBox="0 0 36 45" fill="none" xmlns="http://www.w3.org/2000/svg">
<path fill-rule="evenodd" clip-rule="evenodd" d="M29.198 0.730484C29.4615 0.59319 29.7864 0.695515 29.9237 0.959031C32.2441 5.41266 34.0516 10.3167 34.9932 15.2651C35.0465 15.5454 35.1022 15.8289 35.1584 16.115C35.5874 18.2984 36.0469 20.637 35.7226 22.9296C35.3972 25.2293 34.4932 26.7012 33.0579 27.4815C32.3414 27.8711 31.5227 28.0704 30.6336 28.135C30.6156 28.5862 30.5449 29.0379 30.4105 29.4859C29.9415 31.0501 28.904 32.4182 27.6793 33.5428C26.4519 34.67 25.0085 35.5788 23.6764 36.2204C21.3483 37.3419 18.9127 37.5926 16.4989 37.2617C16.8171 39.7166 15.7577 41.8717 13.7273 43.3754C11.3463 45.1388 8.36614 45.007 5.77863 44.2594C5.42622 44.1576 5.08015 44.0409 4.74102 43.9095C4.71132 44.0898 4.6829 44.268 4.65644 44.4437C4.61218 44.7375 4.33812 44.9398 4.04429 44.8956C3.75047 44.8513 3.54816 44.5772 3.59242 44.2834C3.63451 44.0039 3.67907 43.7306 3.72457 43.461C2.93363 43.0674 2.18739 42.5867 1.49428 42.0199C1.47378 42.0031 1.45162 41.9852 1.42804 41.966C1.21564 41.7937 0.887901 41.5279 0.623722 41.2167C0.340083 40.8827 0.0217019 40.3723 0.134962 39.7671C0.282768 38.9774 0.883838 38.4246 1.51507 38.1191C2.14616 37.8137 2.92013 37.697 3.57163 37.8823C4.29362 38.0875 4.78441 38.4946 5.04753 39.0643C5.29716 39.6047 5.31034 40.2248 5.23787 40.8136C5.15638 41.4757 5.04181 42.1556 4.92626 42.825C5.3003 42.9785 5.68427 43.1121 6.07731 43.2256C8.52834 43.9338 11.1 43.9822 13.0869 42.5107C14.9221 41.1515 15.7865 39.248 15.3789 37.0671C14.6738 36.9192 13.9723 36.7251 13.2776 36.4922C10.9002 35.6949 8.8128 34.4044 6.88298 32.8914L6.83074 32.8504C5.5628 31.8565 3.90014 30.5532 3.07208 28.9292C2.86461 28.5223 2.73062 28.0269 2.77306 27.537C2.81702 27.0295 3.05388 26.5284 3.5701 26.1968C4.1049 25.8533 4.73583 25.7937 5.29316 25.8394C5.85621 25.8855 6.40539 26.0438 6.83467 26.2037C8.85785 26.9571 10.648 28.3371 12.1273 29.7845C13.908 31.5268 15.5315 33.6261 16.2614 36.1381C18.6354 36.5283 20.9881 36.321 23.2094 35.251C24.4649 34.6463 25.8157 33.7934 26.9515 32.7503C28.0901 31.7047 28.9849 30.4938 29.3798 29.1769C29.4802 28.8421 29.537 28.4998 29.5553 28.152C29.0336 28.1338 28.494 28.0808 27.9419 28.0024C26.2307 27.7594 24.6144 27.0528 23.095 26.3886C22.811 26.2645 22.5304 26.1418 22.2532 26.0239C19.3803 24.8022 17.0113 23.4745 14.7048 21.3693C13.3224 20.1075 12.277 18.4641 12.1359 16.4858C12.0793 15.6919 12.2384 15.0241 12.5877 14.4905C12.9353 13.9594 13.4408 13.6079 13.9975 13.3899C15.0914 12.9615 16.4555 13.017 17.5668 13.2778C21.4843 14.1969 24.4937 16.9185 26.8454 19.9114C27.7611 21.0768 28.9011 22.591 29.6881 24.231C30.118 25.1269 30.4541 26.0843 30.5822 27.0598C31.3395 27.0022 31.9946 26.8348 32.5439 26.5362C33.5866 25.9693 34.3623 24.8628 34.6572 22.7788C34.9542 20.6792 34.5341 18.5313 34.1026 16.3253C34.0468 16.0399 33.9908 15.7536 33.9361 15.4662C33.0167 10.6342 31.2479 5.82947 28.9694 1.45621C28.8321 1.1927 28.9344 0.867777 29.198 0.730484ZM29.4972 27.0727C29.3777 26.2911 29.0997 25.4922 28.7179 24.6965C27.9863 23.1718 26.9116 21.7372 25.9994 20.5762C23.7113 17.6644 20.8926 15.1633 17.321 14.3253C16.3262 14.0919 15.205 14.0726 14.3899 14.3918C13.9921 14.5476 13.6872 14.7755 13.488 15.0798C13.2904 15.3817 13.1662 15.8053 13.2092 16.4092C13.3251 18.0343 14.1852 19.4382 15.4302 20.5745C17.6193 22.5725 19.8723 23.8422 22.6743 25.0337C22.9723 25.1604 23.2669 25.2889 23.5592 25.4164C25.0809 26.08 26.5405 26.7166 28.0932 26.937C28.588 27.0073 29.0562 27.0535 29.4972 27.0727ZM15.0503 35.8889C14.3273 33.8612 12.9513 32.0961 11.3748 30.5536C9.95016 29.1598 8.28548 27.8922 6.45916 27.2121C6.08401 27.0724 5.63613 26.9471 5.20524 26.9118C4.76864 26.876 4.40876 26.937 4.15163 27.1022C3.95598 27.2278 3.86462 27.4041 3.84508 27.6299C3.824 27.8732 3.89122 28.1669 4.0307 28.4404C4.74141 29.8343 6.22221 31.006 7.54689 32.0446C9.41594 33.51 11.3952 34.726 13.6198 35.472C14.0961 35.6317 14.5733 35.7714 15.0503 35.8889ZM3.9163 42.3492C4.01097 41.7969 4.10025 41.248 4.1699 40.6821C4.23208 40.1769 4.19813 39.7914 4.07068 39.5155C3.95673 39.2688 3.7405 39.0489 3.27738 38.9173C2.93179 38.819 2.43101 38.8712 1.98384 39.0877C1.53679 39.304 1.25605 39.6262 1.19263 39.9651C1.17172 40.0767 1.21864 40.2549 1.44396 40.5203C1.63932 40.7504 1.88828 40.953 2.1085 41.1323C2.13114 41.1508 2.15348 41.169 2.17542 41.1869C2.72079 41.6328 3.30255 42.0205 3.9163 42.3492Z" fill="#181818"/>
</svg>
